#N canvas 0 0 1276 717 10;
#X declare -lib mrpeach;
#X obj 201 139 import mrpeach;
#X obj 120 142 slipdec;
#X msg 232 83 close;
#X obj 120 169 unpackOSC;
#X msg 34 86 baud 115200;
#X obj 121 117 comport;
#X msg 231 57 devices;
#X msg 121 80 open 9;
#X obj -210 370 dac~;
#X obj -108 282 / 1024;
#X floatatom -108 315 5 0 0 0 - - -;
#X obj -210 331 *~;
#N canvas 0 0 450 300 (subpatch) 0;
#X array sample1 20413 float 2;
#X coords 0 1 20413 -1 200 140 1;
#X restore -295 515 graph;
#X obj -297 475 soundfiler;
#X obj -297 396 bng 15 250 50 0 empty empty empty 17 7 0 10 -262144
-1 -1;
#X msg -297 450 read -resize 1.wav sample1;
#X obj -211 280 tabplay~ sample1;
#N canvas 0 0 450 300 (subpatch) 0;
#X array sample2 147160 float 2;
#X coords 0 1 147160 -1 200 140 1;
#X restore -67 517 graph;
#X obj -69 477 soundfiler;
#X msg -69 451 read -resize 2.wav sample2;
#N canvas 0 0 450 300 (subpatch) 0;
#X array sample3 20413 float 2;
#X coords 0 1 20413 -1 200 140 1 0 0;
#X restore 160 515 graph;
#X obj 158 475 soundfiler;
#X msg 158 450 read -resize 3.wav sample3;
#N canvas 0 0 450 300 (subpatch) 0;
#X array sample4 147160 float 2;
#X coords 0 1 147160 -1 200 140 1 0 0;
#X restore 384 511 graph;
#X obj 383 471 soundfiler;
#X msg 383 446 read -resize 4.wav sample4;
#N canvas 0 0 450 300 (subpatch) 0;
#X array sample5 20413 float 2;
#X coords 0 1 20413 -1 200 140 1 0 0;
#X restore 619 508 graph;
#X obj 617 468 soundfiler;
#X msg 617 443 read -resize 5.wav sample5;
#X obj 120 194 routeOSC /drum/0/bang /drum/1/bang /drum/2/bang /drum/3/bang
/drum/4/bang;
#X obj -37 370 dac~;
#X obj 65 282 / 1024;
#X floatatom 65 315 5 0 0 0 - - -;
#X obj -37 331 *~;
#X obj 181 372 dac~;
#X obj 283 284 / 1024;
#X floatatom 283 317 5 0 0 0 - - -;
#X obj 181 333 *~;
#X obj 400 369 dac~;
#X obj 502 281 / 1024;
#X floatatom 502 314 5 0 0 0 - - -;
#X obj 400 330 *~;
#X obj 638 361 dac~;
#X obj 740 273 / 1024;
#X floatatom 740 306 5 0 0 0 - - -;
#X obj 638 322 *~;
#X obj -37 280 tabplay~ sample2;
#X obj 181 282 tabplay~ sample3;
#X obj 399 279 tabplay~ sample4;
#X obj 637 271 tabplay~ sample5;
#X obj -192 43 bng 15 250 50 0 empty empty empty 17 7 0 10 -262144
-1 -1;
#X text -246 13 Push this button to initialize everything.;
#X connect 1 0 3 0;
#X connect 2 0 5 0;
#X connect 3 0 29 0;
#X connect 4 0 5 0;
#X connect 5 0 1 0;
#X connect 6 0 5 0;
#X connect 7 0 5 0;
#X connect 9 0 10 0;
#X connect 10 0 11 1;
#X connect 11 0 8 0;
#X connect 11 0 8 1;
#X connect 14 0 15 0;
#X connect 14 0 19 0;
#X connect 14 0 22 0;
#X connect 14 0 25 0;
#X connect 14 0 28 0;
#X connect 15 0 13 0;
#X connect 16 0 11 0;
#X connect 19 0 18 0;
#X connect 22 0 21 0;
#X connect 25 0 24 0;
#X connect 28 0 27 0;
#X connect 29 0 16 0;
#X connect 29 0 9 0;
#X connect 29 1 46 0;
#X connect 29 1 31 0;
#X connect 29 2 35 0;
#X connect 29 2 47 0;
#X connect 29 3 39 0;
#X connect 29 3 48 0;
#X connect 29 4 43 0;
#X connect 29 4 49 0;
#X connect 31 0 32 0;
#X connect 32 0 33 1;
#X connect 33 0 30 0;
#X connect 33 0 30 1;
#X connect 35 0 36 0;
#X connect 36 0 37 1;
#X connect 37 0 34 0;
#X connect 37 0 34 1;
#X connect 39 0 40 0;
#X connect 40 0 41 1;
#X connect 41 0 38 0;
#X connect 41 0 38 1;
#X connect 43 0 44 0;
#X connect 44 0 45 1;
#X connect 45 0 42 0;
#X connect 45 0 42 1;
#X connect 46 0 33 0;
#X connect 47 0 37 0;
#X connect 48 0 41 0;
#X connect 49 0 45 0;
#X connect 50 0 4 0;
#X connect 50 0 14 0;
#X connect 50 0 7 0;
