#N canvas 633 0 638 708 10;
#X declare -lib mrpeach;
#X obj 51 538 dac~;
#X msg 35 16 devices;
#X msg 109 17 open 9;
#X obj 257 13 import mrpeach;
#X obj 35 94 slipdec;
#X msg 169 20 close;
#X obj 51 511 readsf~ 2;
#X msg 58 480 start;
#X msg 51 452 open kick.wav;
#X obj 31 158 routeOSC /drum/0/bang /drum/0/volume;
#X obj 31 134 unpackOSC;
#X floatatom 70 204 5 0 0 0 - - -;
#X floatatom 146 202 5 0 0 0 - - -;
#X obj 146 232 max;
#X floatatom 216 236 5 0 0 0 - - -;
#X obj 270 474 openpanel;
#X msg 267 508 read -resize \$1 sample9;
#X obj 270 538 soundfiler;
#X obj 267 439 bng 15 250 50 0 empty empty empty 17 7 0 10 -262144
-1 -1;
#X obj 150 412 dac~;
#N canvas 0 0 450 300 (subpatch) 0;
#X array sample9 44541 float 2;
#X coords 0 1 44541 -1 200 140 1;
#X restore 307 222 graph;
#X obj 38 320 tabplay~ sample9;
#X msg 218 193 0;
#X msg 154 42 baud 115200;
#X obj 36 69 comport;
#X obj 216 282 / 1024;
#X floatatom 216 317 5 0 0 0 - - -;
#X obj 156 372 *~;
#X connect 1 0 24 0;
#X connect 2 0 24 0;
#X connect 4 0 10 0;
#X connect 5 0 24 0;
#X connect 6 0 0 0;
#X connect 6 1 0 1;
#X connect 7 0 6 0;
#X connect 8 0 6 0;
#X connect 8 0 7 0;
#X connect 9 0 11 0;
#X connect 9 0 21 0;
#X connect 9 1 12 0;
#X connect 10 0 9 0;
#X connect 12 0 13 0;
#X connect 12 0 25 0;
#X connect 13 0 14 0;
#X connect 14 0 13 1;
#X connect 15 0 16 0;
#X connect 16 0 17 0;
#X connect 18 0 15 0;
#X connect 21 0 27 0;
#X connect 22 0 14 0;
#X connect 23 0 24 0;
#X connect 24 0 4 0;
#X connect 25 0 26 0;
#X connect 26 0 27 1;
#X connect 27 0 19 0;
#X connect 27 0 19 1;
